<svg width="1643" height="847" viewBox="0 0 1643 847" fill="none" xmlns="http://www.w3.org/2000/svg">
<path d="M317.731 731.65L293.331 537.06C283.721 460.45 338.331 398.34 415.391 398.34H544.241" stroke="url(#paint0_linear_48_105)" stroke-width="6" stroke-linecap="round" stroke-linejoin="round"/>
<path d="M625.001 394.921L641.001 372.391L636.791 342.141C635.661 340.001 634.501 337.771 633.311 335.471C545.941 348.471 535.311 385.081 554.931 424.291C410.001 452.591 346.901 675.051 384.601 780.601C395.341 810.601 403.961 840.601 435.871 840.941" stroke="url(#paint1_linear_48_105)" stroke-width="6" stroke-linecap="round" stroke-linejoin="round"/>
<path d="M670.573 475.79C670.573 475.6 670.573 475.41 670.573 475.22C675.313 475.68 679.913 475.71 684.353 471.87C695.353 462.34 699.253 459.48 699.253 459.48C699.253 459.48 700.253 460.68 702.023 462.71C704.193 458.71 706.453 454.56 708.763 450.36C661.273 413.58 625.003 394.92 625.003 394.92L622.323 393L604.883 414.27C604.883 414.27 633.263 433.83 670.573 475.79Z" fill="url(#paint2_linear_48_105)"/>
<path d="M900.135 821.06C900.135 821.06 824.135 616.67 833.805 553.33C839.075 518.78 830.805 479.6 819.385 449.33L797.615 450.74L771.555 512.36C773.255 512.78 774.955 513.13 776.655 513.36C776.655 513.36 775.655 519.83 773.195 534.7C771.545 544.61 774.375 545.7 776.615 552.58C779.505 557.21 781.725 562.41 779.285 570.45C778.485 573.08 776.585 597.85 772.285 631.45C780.285 648.45 787.925 666.39 795.085 685.45C841.165 808.37 836.375 821.78 836.375 821.78L900.135 821.06Z" fill="url(#paint3_linear_48_105)"/>
<path d="M1157.5 839.331C1152.03 803.331 1113.02 610.101 889.84 440.611C884.84 410.331 872.19 362.671 807.18 340.391" stroke="url(#paint4_linear_48_105)" stroke-width="6" stroke-linecap="round" stroke-linejoin="round"/>
<path d="M851.902 542.57C851.902 542.57 849.502 607.85 863.792 654.78" stroke="url(#paint5_linear_48_105)" stroke-width="8" stroke-linecap="round" stroke-linejoin="round"/>
<path d="M886.88 439.861C887.59 444.121 888.14 448.041 888.67 451.481C894.81 491.301 881.67 517.741 872.98 536.071C896.31 519.571 912.04 488.191 919.98 464.261C910.39 456.581 897.3 447.621 886.88 439.861Z" fill="url(#paint6_linear_48_105)"/>
<path d="M557.24 422.521C540.92 425.851 514.1 433.982 494.77 447.352C508.27 454.712 575.13 494.752 629.77 518.772C630.2 518.522 633.2 513.522 634.7 511.572C604.46 487.592 572.65 453.411 557.24 422.521Z" fill="url(#paint7_linear_48_105)"/>
<path d="M601.251 263.25C601.251 263.25 564.141 273.31 579.161 305C589.601 327 609.421 319.18 621.241 312.51" stroke="url(#paint8_linear_48_105)" stroke-width="6" stroke-linecap="round" stroke-linejoin="round"/>
<path d="M611.152 269.27L622.812 265.36C630.502 270.01 655.902 301.57 664.092 317.21C664.092 317.21 701.382 293.02 759.592 277.55C759.592 277.55 791.282 270.31 805.062 270.89C801.062 238.89 792.882 198.01 778.482 161.46C757.062 107.13 690.782 128.21 681.162 131.46C577.792 166.63 611.052 269.04 611.052 269.04L611.152 269.27Z" stroke="url(#paint9_linear_48_105)" stroke-width="6" stroke-linecap="round" stroke-linejoin="round"/>
<path d="M727.491 403.371C715.051 403.371 703.221 401.301 693.911 397.621C663.711 385.691 657.291 378.001 646.451 359.861C635.611 341.721 601.641 272.471 601.641 272.471L622.811 265.361C630.501 270.011 655.901 301.571 664.091 317.211C664.091 317.211 701.381 293.021 759.591 277.551C759.591 277.551 791.591 270.231 805.281 270.891C805.281 270.891 811.821 303.431 807.901 335.331" stroke="url(#paint10_linear_48_105)" stroke-width="6" stroke-linecap="round" stroke-linejoin="round"/>
<path d="M604.241 281.521C604.241 281.521 585.121 259.351 571.311 232.861C558.311 207.961 563.701 177.111 585.251 159.111C603.291 144.001 620.461 148.001 620.461 148.001C620.461 148.001 589.401 116.361 613.891 75.4307C618.177 68.2691 623.881 62.0581 630.653 57.1781C637.424 52.2982 645.121 48.852 653.271 47.0507C693.471 38.2407 714.271 68.9007 714.271 68.9007C714.271 68.9007 737.371 -20.2893 836.581 4.25066C846.581 6.73066 859.811 17.3107 866.781 24.9107C909.001 71.0007 829.461 158.001 781.071 175.421C727.941 194.541 693.771 193.491 672.891 184.551C687.901 189.121 688.451 273.791 604.241 281.521Z" fill="url(#paint11_linear_48_105)"/>
<path d="M757.571 253.951L776.311 303.811L757.051 303.711" stroke="url(#paint12_linear_48_105)" stroke-width="8" stroke-linecap="round" stroke-linejoin="round"/>
<path d="M747.279 347.02C752.509 347.02 756.749 342.78 756.749 337.55C756.749 332.32 752.509 328.08 747.279 328.08C742.048 328.08 737.809 332.32 737.809 337.55C737.809 342.78 742.048 347.02 747.279 347.02Z" fill="url(#paint13_linear_48_105)"/>
<path d="M779.739 258.073C782.643 257.347 784.086 253.114 782.962 248.619C781.838 244.124 778.572 241.068 775.668 241.794C772.764 242.521 771.321 246.753 772.446 251.249C773.57 255.744 776.835 258.799 779.739 258.073Z" fill="url(#paint14_linear_48_105)"/>
<path d="M728.887 269.849C731.791 269.122 733.234 264.89 732.11 260.394C730.986 255.899 727.721 252.844 724.817 253.57C721.913 254.296 720.47 258.529 721.594 263.024C722.718 267.519 725.984 270.575 728.887 269.849Z" fill="url(#paint15_linear_48_105)"/>
<path d="M693.66 229.94C695.462 225.874 698.322 222.366 701.942 219.782C705.562 217.198 709.809 215.633 714.24 215.25" stroke="url(#paint16_linear_48_105)" stroke-width="8" stroke-linecap="round" stroke-linejoin="round"/>
<path d="M762.32 202.321C762.32 202.321 775.96 194.891 782.59 205.901" stroke="url(#paint17_linear_48_105)" stroke-width="8" stroke-linecap="round" stroke-linejoin="round"/>
<path d="M1354 562.9H965.199C962.723 562.902 960.319 563.738 958.377 565.276C956.435 566.813 955.069 568.96 954.499 571.37L900.439 800.19H759.509C759.509 800.19 751.699 840.53 797.239 840.53H1293.63C1296.11 840.529 1298.51 839.692 1300.45 838.155C1302.39 836.618 1303.76 834.471 1304.33 832.06L1364.72 576.43C1365.1 574.814 1365.11 573.132 1364.75 571.511C1364.39 569.89 1363.67 568.371 1362.64 567.069C1361.6 565.767 1360.29 564.716 1358.8 563.994C1357.3 563.272 1355.66 562.898 1354 562.9Z" fill="url(#paint18_linear_48_105)"/>
<path d="M1199.76 206.24H1196.7C1193.94 206.24 1191.7 208.479 1191.7 211.24V219.13C1191.7 221.892 1193.94 224.13 1196.7 224.13H1199.76C1202.52 224.13 1204.76 221.892 1204.76 219.13V211.24C1204.76 208.479 1202.52 206.24 1199.76 206.24Z" fill="url(#paint19_linear_48_105)"/>
<path d="M1181.68 206.24H1101.88C1099.12 206.24 1096.88 208.479 1096.88 211.24V219.13C1096.88 221.892 1099.12 224.13 1101.88 224.13H1181.68C1184.44 224.13 1186.68 221.892 1186.68 219.13V211.24C1186.68 208.479 1184.44 206.24 1181.68 206.24Z" fill="url(#paint20_linear_48_105)"/>
<path d="M1189.81 289.34H1101.88C1099.12 289.34 1096.88 291.578 1096.88 294.34V302.23C1096.88 304.991 1099.12 307.23 1101.88 307.23H1189.81C1192.57 307.23 1194.81 304.991 1194.81 302.23V294.34C1194.81 291.578 1192.57 289.34 1189.81 289.34Z" fill="url(#paint21_linear_48_105)"/>
<path d="M1268.53 261.67H1126.64C1123.88 261.67 1121.64 263.908 1121.64 266.67V274.56C1121.64 277.321 1123.88 279.56 1126.64 279.56H1268.53C1271.29 279.56 1273.53 277.321 1273.53 274.56V266.67C1273.53 263.908 1271.29 261.67 1268.53 261.67Z" fill="url(#paint22_linear_48_105)"/>
<path d="M1359.07 261.67H1287.03C1284.27 261.67 1282.03 263.908 1282.03 266.67V274.56C1282.03 277.321 1284.27 279.56 1287.03 279.56H1359.07C1361.83 279.56 1364.07 277.321 1364.07 274.56V266.67C1364.07 263.908 1361.83 261.67 1359.07 261.67Z" fill="url(#paint23_linear_48_105)"/>
<path d="M1386.84 234.01H1383.78C1381.02 234.01 1378.78 236.248 1378.78 239.01V246.9C1378.78 249.661 1381.02 251.9 1383.78 251.9H1386.84C1389.6 251.9 1391.84 249.661 1391.84 246.9V239.01C1391.84 236.248 1389.6 234.01 1386.84 234.01Z" fill="url(#paint24_linear_48_105)"/>
<path d="M1248.94 233.961H1101.88C1099.12 233.961 1096.88 236.2 1096.88 238.961V246.851C1096.88 249.612 1099.12 251.851 1101.88 251.851H1248.94C1251.7 251.851 1253.94 249.612 1253.94 246.851V238.961C1253.94 236.2 1251.7 233.961 1248.94 233.961Z" fill="url(#paint25_linear_48_105)"/>
<path d="M1295.32 206.24H1215.52C1212.76 206.24 1210.52 208.479 1210.52 211.24V219.13C1210.52 221.892 1212.76 224.13 1215.52 224.13H1295.32C1298.08 224.13 1300.32 221.892 1300.32 219.13V211.24C1300.32 208.479 1298.08 206.24 1295.32 206.24Z" fill="url(#paint26_linear_48_105)"/>
<path d="M1366.76 233.9H1265.97C1263.21 233.9 1260.97 236.139 1260.97 238.9V246.9C1260.97 249.662 1263.21 251.9 1265.97 251.9H1366.76C1369.52 251.9 1371.76 249.662 1371.76 246.9V238.9C1371.76 236.139 1369.52 233.9 1366.76 233.9Z" fill="url(#paint27_linear_48_105)"/>
<path d="M1181.68 385.611H1101.88C1099.12 385.611 1096.88 387.85 1096.88 390.611V398.501C1096.88 401.263 1099.12 403.501 1101.88 403.501H1181.68C1184.44 403.501 1186.68 401.263 1186.68 398.501V390.611C1186.68 387.85 1184.44 385.611 1181.68 385.611Z" fill="url(#paint28_linear_48_105)"/>
<path d="M1189.81 468.711H1101.88C1099.12 468.711 1096.88 470.95 1096.88 473.711V481.601C1096.88 484.362 1099.12 486.601 1101.88 486.601H1189.81C1192.57 486.601 1194.81 484.362 1194.81 481.601V473.711C1194.81 470.95 1192.57 468.711 1189.81 468.711Z" fill="url(#paint29_linear_48_105)"/>
<path d="M1268.53 441.051H1126.64C1123.88 441.051 1121.64 443.289 1121.64 446.051V453.941C1121.64 456.702 1123.88 458.941 1126.64 458.941H1268.53C1271.29 458.941 1273.53 456.702 1273.53 453.941V446.051C1273.53 443.289 1271.29 441.051 1268.53 441.051Z" fill="url(#paint30_linear_48_105)"/>
<path d="M1359.07 441.051H1287.03C1284.27 441.051 1282.03 443.289 1282.03 446.051V453.941C1282.03 456.702 1284.27 458.941 1287.03 458.941H1359.07C1361.83 458.941 1364.07 456.702 1364.07 453.941V446.051C1364.07 443.289 1361.83 441.051 1359.07 441.051Z" fill="url(#paint31_linear_48_105)"/>
<path d="M1386.84 413.381H1383.78C1381.02 413.381 1378.78 415.619 1378.78 418.381V426.271C1378.78 429.032 1381.02 431.271 1383.78 431.271H1386.84C1389.6 431.271 1391.84 429.032 1391.84 426.271V418.381C1391.84 415.619 1389.6 413.381 1386.84 413.381Z" fill="url(#paint32_linear_48_105)"/>
<path d="M1409.68 385.611H1406.62C1403.86 385.611 1401.62 387.85 1401.62 390.611V398.501C1401.62 401.263 1403.86 403.501 1406.62 403.501H1409.68C1412.44 403.501 1414.68 401.263 1414.68 398.501V390.611C1414.68 387.85 1412.44 385.611 1409.68 385.611Z" fill="url(#paint33_linear_48_105)"/>
<path d="M1248.94 413.33H1101.88C1099.12 413.33 1096.88 415.569 1096.88 418.33V426.22C1096.88 428.982 1099.12 431.22 1101.88 431.22H1248.94C1251.7 431.22 1253.94 428.982 1253.94 426.22V418.33C1253.94 415.569 1251.7 413.33 1248.94 413.33Z" fill="url(#paint34_linear_48_105)"/>
<path d="M1295.32 385.611H1196.7C1193.94 385.611 1191.7 387.85 1191.7 390.611V398.501C1191.7 401.263 1193.94 403.501 1196.7 403.501H1295.32C1298.08 403.501 1300.32 401.263 1300.32 398.501V390.611C1300.32 387.85 1298.08 385.611 1295.32 385.611Z" fill="url(#paint35_linear_48_105)"/>
<path d="M1392.04 385.611H1312.24C1309.48 385.611 1307.24 387.85 1307.24 390.611V398.501C1307.24 401.263 1309.48 403.501 1312.24 403.501H1392.04C1394.8 403.501 1397.04 401.263 1397.04 398.501V390.611C1397.04 387.85 1394.8 385.611 1392.04 385.611Z" fill="url(#paint36_linear_48_105)"/>
<path d="M1199.76 358.801H1196.7C1193.94 358.801 1191.7 361.039 1191.7 363.801V371.691C1191.7 374.452 1193.94 376.691 1196.7 376.691H1199.76C1202.52 376.691 1204.76 374.452 1204.76 371.691V363.801C1204.76 361.039 1202.52 358.801 1199.76 358.801Z" fill="url(#paint37_linear_48_105)"/>
<path d="M1181.68 358.801H1101.88C1099.12 358.801 1096.88 361.039 1096.88 363.801V371.691C1096.88 374.452 1099.12 376.691 1101.88 376.691H1181.68C1184.44 376.691 1186.68 374.452 1186.68 371.691V363.801C1186.68 361.039 1184.44 358.801 1181.68 358.801Z" fill="url(#paint38_linear_48_105)"/>
<path d="M1295.32 358.801H1215.52C1212.76 358.801 1210.52 361.039 1210.52 363.801V371.691C1210.52 374.452 1212.76 376.691 1215.52 376.691H1295.32C1298.08 376.691 1300.32 374.452 1300.32 371.691V363.801C1300.32 361.039 1298.08 358.801 1295.32 358.801Z" fill="url(#paint39_linear_48_105)"/>
<path d="M1366.76 413.281H1265.97C1263.21 413.281 1260.97 415.52 1260.97 418.281V426.281C1260.97 429.043 1263.21 431.281 1265.97 431.281H1366.76C1369.52 431.281 1371.76 429.043 1371.76 426.281V418.281C1371.76 415.52 1369.52 413.281 1366.76 413.281Z" fill="url(#paint40_linear_48_105)"/>
<path d="M1484.34 735.411C1486.52 734.648 1488.79 734.174 1491.1 734.001C1494.76 733.737 1498.44 734.25 1501.89 735.506C1505.34 736.762 1508.49 738.734 1511.13 741.291C1513.76 743.848 1515.83 746.933 1517.19 750.344C1518.55 753.756 1519.17 757.416 1519.02 761.086C1518.87 764.755 1517.94 768.351 1516.3 771.638C1514.67 774.924 1512.35 777.828 1509.51 780.157C1506.67 782.487 1503.37 784.191 1499.83 785.156C1496.29 786.122 1492.58 786.328 1488.95 785.761" stroke="url(#paint41_linear_48_105)" stroke-width="6" stroke-linecap="round" stroke-linejoin="round"/>
<path d="M1421.52 738.811L1384.25 693.311" stroke="url(#paint42_linear_48_105)" stroke-width="6" stroke-linecap="round" stroke-linejoin="round"/>
<path d="M1378.78 724.711V810.521C1378.78 818.477 1381.94 826.108 1387.57 831.734C1393.19 837.36 1400.82 840.521 1408.78 840.521H1459.38C1467.34 840.521 1474.97 837.36 1480.59 831.734C1486.22 826.108 1489.38 818.477 1489.38 810.521V724.711H1378.78ZM1423.52 787.541C1423.83 787.719 1424.08 787.976 1424.26 788.285C1424.44 788.594 1424.53 788.945 1424.52 789.301C1424.52 789.831 1424.31 790.34 1423.94 790.715C1423.56 791.09 1423.05 791.301 1422.52 791.301C1422.17 791.306 1421.83 791.22 1421.52 791.051L1401.52 779.051C1401.18 778.889 1400.89 778.633 1400.68 778.313C1400.48 777.992 1400.37 777.621 1400.37 777.241C1400.37 776.861 1400.48 776.489 1400.68 776.169C1400.89 775.848 1401.18 775.592 1401.52 775.431L1421.52 763.431C1421.83 763.262 1422.17 763.175 1422.52 763.181C1423.05 763.181 1423.56 763.392 1423.94 763.767C1424.31 764.142 1424.52 764.65 1424.52 765.181C1424.53 765.537 1424.44 765.887 1424.26 766.197C1424.08 766.506 1423.83 766.763 1423.52 766.941L1406.31 777.261L1423.52 787.541ZM1448.52 757.961L1432.42 798.211C1432.32 798.415 1432.18 798.601 1432.02 798.761C1431.83 798.951 1431.61 799.102 1431.37 799.205C1431.12 799.308 1430.86 799.361 1430.59 799.361C1430.06 799.361 1429.55 799.15 1429.18 798.775C1428.8 798.4 1428.59 797.891 1428.59 797.361C1428.59 797.068 1428.65 796.778 1428.77 796.511L1444.87 756.261C1444.98 756.044 1445.13 755.848 1445.3 755.681C1445.48 755.492 1445.7 755.342 1445.95 755.242C1446.19 755.143 1446.45 755.094 1446.71 755.101C1447.24 755.101 1447.75 755.312 1448.13 755.687C1448.5 756.062 1448.71 756.57 1448.71 757.101C1448.71 757.411 1448.65 757.719 1448.52 758.001V757.961ZM1475.77 779.001L1455.77 791.001C1455.47 791.17 1455.12 791.256 1454.77 791.251C1454.24 791.251 1453.73 791.04 1453.36 790.665C1452.98 790.29 1452.77 789.781 1452.77 789.251C1452.77 788.895 1452.86 788.544 1453.03 788.235C1453.21 787.926 1453.46 787.669 1453.77 787.491L1471 777.231L1453.79 766.911C1453.48 766.733 1453.23 766.476 1453.05 766.167C1452.88 765.857 1452.79 765.507 1452.79 765.151C1452.79 764.887 1452.84 764.626 1452.94 764.382C1453.05 764.138 1453.19 763.917 1453.38 763.731C1453.57 763.543 1453.79 763.393 1454.04 763.292C1454.28 763.191 1454.55 763.139 1454.81 763.141C1455.16 763.135 1455.51 763.222 1455.81 763.391L1475.81 775.391C1476.15 775.552 1476.45 775.808 1476.65 776.129C1476.85 776.449 1476.96 776.821 1476.96 777.201C1476.96 777.581 1476.85 777.952 1476.65 778.273C1476.45 778.593 1476.15 778.849 1475.81 779.011L1475.77 779.001Z" fill="url(#paint43_linear_48_105)"/>
<path d="M245.2 786.001C241.786 786.252 238.355 785.829 235.105 784.754C231.854 783.68 228.847 781.976 226.255 779.739C223.662 777.503 221.536 774.778 219.997 771.72C218.458 768.661 217.537 765.33 217.285 761.915C217.034 758.501 217.457 755.071 218.532 751.82C219.606 748.569 221.31 745.562 223.546 742.97C225.783 740.378 228.508 738.251 231.566 736.712C234.624 735.174 237.956 734.252 241.37 734.001C242.946 733.882 244.529 733.908 246.1 734.081" stroke="url(#paint44_linear_48_105)" stroke-width="6" stroke-linecap="round" stroke-linejoin="round"/>
<path d="M241.809 724.711V810.521C241.809 818.477 244.969 826.108 250.595 831.734C256.221 837.36 263.852 840.521 271.809 840.521H322.419C330.375 840.521 338.006 837.36 343.632 831.734C349.258 826.108 352.419 818.477 352.419 810.521V724.711H241.809ZM286.559 787.541C286.867 787.719 287.122 787.976 287.298 788.285C287.473 788.594 287.564 788.945 287.559 789.301C287.559 789.831 287.348 790.34 286.973 790.715C286.598 791.09 286.089 791.301 285.559 791.301C285.209 791.306 284.864 791.22 284.559 791.051L264.559 779.051C264.215 778.889 263.924 778.633 263.721 778.313C263.517 777.992 263.409 777.621 263.409 777.241C263.409 776.861 263.517 776.489 263.721 776.169C263.924 775.848 264.215 775.592 264.559 775.431L284.559 763.431C284.864 763.262 285.209 763.175 285.559 763.181C286.089 763.181 286.598 763.392 286.973 763.767C287.348 764.142 287.559 764.65 287.559 765.181C287.564 765.537 287.473 765.887 287.298 766.197C287.122 766.506 286.867 766.763 286.559 766.941L269.349 777.261L286.559 787.541ZM328.739 779.041L308.739 791.041C308.433 791.21 308.088 791.296 307.739 791.291C307.474 791.296 307.211 791.247 306.967 791.145C306.722 791.044 306.501 790.892 306.319 790.701C306.128 790.517 305.978 790.296 305.876 790.052C305.775 789.808 305.724 789.545 305.729 789.281C305.724 788.925 305.814 788.574 305.99 788.265C306.165 787.956 306.42 787.699 306.729 787.521L323.939 777.211L306.729 766.891C306.42 766.713 306.165 766.456 305.99 766.147C305.814 765.837 305.724 765.487 305.729 765.131C305.729 764.6 305.939 764.092 306.314 763.717C306.689 763.342 307.198 763.131 307.729 763.131C308.078 763.125 308.423 763.212 308.729 763.381L328.729 775.381C329.072 775.542 329.363 775.798 329.566 776.119C329.77 776.439 329.878 776.811 329.878 777.191C329.878 777.571 329.77 777.942 329.566 778.263C329.363 778.583 329.072 778.839 328.729 779.001L328.739 779.041Z" fill="url(#paint45_linear_48_105)"/>
<path d="M427.338 690.13L413.668 665.32" stroke="url(#paint46_linear_48_105)" stroke-width="6" stroke-linecap="round" stroke-linejoin="round"/>
<path d="M396.988 692.781H472.758" stroke="url(#paint47_linear_48_105)" stroke-width="6" stroke-linecap="round" stroke-linejoin="round"/>
<path d="M462.27 773.58C461.308 772.61 460.039 772.004 458.68 771.865C457.321 771.726 455.955 772.063 454.817 772.818C453.679 773.574 452.838 774.701 452.438 776.007C452.038 777.314 452.104 778.718 452.625 779.982C453.145 781.245 454.088 782.288 455.292 782.934C456.496 783.579 457.887 783.787 459.227 783.521C460.567 783.256 461.774 782.533 462.641 781.477C463.507 780.421 463.981 779.096 463.98 777.73C463.991 776.959 463.845 776.193 463.551 775.479C463.257 774.766 462.821 774.12 462.27 773.58Z" fill="url(#paint48_linear_48_105)"/>
<path d="M458.11 764.82C459.469 764.83 460.79 764.367 461.847 763.511C462.903 762.655 463.63 761.458 463.902 760.126C464.175 758.794 463.976 757.408 463.341 756.206C462.705 755.004 461.672 754.06 460.417 753.535C459.163 753.01 457.765 752.937 456.463 753.328C455.161 753.719 454.034 754.55 453.277 755.679C452.519 756.809 452.177 758.166 452.309 759.519C452.441 760.873 453.038 762.138 454 763.1C454.532 763.65 455.171 764.086 455.878 764.382C456.585 764.678 457.344 764.827 458.11 764.82Z" fill="url(#paint49_linear_48_105)"/>
<path d="M462.269 800.67C463.239 799.708 463.845 798.44 463.984 797.081C464.123 795.723 463.787 794.358 463.032 793.219C462.277 792.081 461.151 791.24 459.845 790.839C458.539 790.439 457.135 790.504 455.872 791.023C454.608 791.542 453.564 792.484 452.918 793.687C452.271 794.89 452.062 796.28 452.326 797.62C452.59 798.96 453.311 800.167 454.365 801.035C455.42 801.903 456.743 802.379 458.109 802.38C458.882 802.393 459.65 802.248 460.365 801.954C461.08 801.66 461.728 801.223 462.269 800.67Z" fill="url(#paint50_linear_48_105)"/>
<path d="M480.209 710.88L466.919 693.59H402.829L389.539 710.88C388.265 712.474 387.561 714.449 387.539 716.49V821.75C387.59 823.435 388.073 825.078 388.941 826.523C389.81 827.967 391.035 829.165 392.499 830C396.609 832.56 401.849 836.52 402.219 840.31H467.529C467.889 836.52 473.129 832.56 477.239 830C478.7 829.159 479.921 827.957 480.785 826.509C481.648 825.061 482.125 823.415 482.169 821.73V716.49C482.154 714.454 481.465 712.482 480.209 710.88ZM452.389 731.07L459.389 719.39C459.485 719.204 459.628 719.047 459.803 718.933C459.979 718.819 460.18 718.753 460.389 718.74C460.608 718.744 460.821 718.807 461.007 718.921C461.194 719.035 461.346 719.197 461.449 719.39L468.449 731.07C468.551 731.249 468.603 731.453 468.599 731.66C468.602 731.813 468.573 731.964 468.515 732.105C468.456 732.246 468.369 732.374 468.259 732.48C468.152 732.591 468.023 732.68 467.88 732.74C467.737 732.8 467.584 732.831 467.429 732.83C467.225 732.824 467.026 732.766 466.851 732.661C466.675 732.556 466.53 732.407 466.429 732.23L460.429 722.23L454.429 732.23C454.327 732.407 454.182 732.554 454.007 732.659C453.832 732.764 453.633 732.823 453.429 732.83C453.274 732.831 453.121 732.8 452.978 732.74C452.835 732.68 452.706 732.591 452.599 732.48C452.488 732.374 452.399 732.247 452.339 732.106C452.279 731.965 452.248 731.813 452.249 731.66C452.242 731.454 452.29 731.25 452.389 731.07ZM452.849 735.47C453.048 735.322 453.291 735.245 453.539 735.25C453.694 735.249 453.847 735.279 453.99 735.339C454.133 735.4 454.262 735.488 454.369 735.6C454.48 735.707 454.567 735.836 454.626 735.979C454.684 736.122 454.713 736.276 454.709 736.43C454.716 736.573 454.691 736.716 454.638 736.849C454.584 736.981 454.503 737.101 454.399 737.2L453.959 737.63C453.405 738.168 452.966 738.814 452.671 739.527C452.375 740.241 452.228 741.007 452.239 741.78C452.206 742.499 452.325 743.218 452.589 743.888C452.853 744.558 453.255 745.166 453.769 745.67C454.051 745.9 454.405 746.024 454.769 746.02C454.982 746.016 455.188 745.943 455.357 745.814C455.526 745.684 455.649 745.504 455.709 745.3L458.099 738.08C458.315 737.393 458.673 736.759 459.149 736.22C459.471 735.89 459.857 735.631 460.284 735.459C460.711 735.287 461.169 735.205 461.629 735.22C462.104 735.218 462.573 735.313 463.01 735.499C463.447 735.685 463.841 735.957 464.169 736.3C464.888 737.023 465.45 737.886 465.82 738.836C466.19 739.785 466.36 740.801 466.319 741.82C466.325 743.024 466.063 744.215 465.553 745.306C465.043 746.397 464.297 747.362 463.369 748.13C463.274 748.21 463.165 748.271 463.046 748.309C462.928 748.347 462.803 748.361 462.679 748.35C462.525 748.351 462.372 748.322 462.23 748.263C462.087 748.205 461.958 748.119 461.849 748.01C461.74 747.901 461.654 747.772 461.595 747.629C461.537 747.487 461.508 747.334 461.509 747.18C461.501 747.035 461.525 746.89 461.578 746.756C461.632 746.621 461.714 746.5 461.819 746.4L462.259 745.97C462.812 745.431 463.249 744.785 463.543 744.072C463.837 743.358 463.982 742.592 463.969 741.82C464.004 741.101 463.887 740.383 463.625 739.712C463.363 739.042 462.962 738.435 462.449 737.93C462.166 737.701 461.813 737.577 461.449 737.58C461.236 737.584 461.03 737.656 460.861 737.786C460.692 737.915 460.569 738.095 460.509 738.3L458.109 745.52C457.908 746.202 457.567 746.836 457.109 747.38C456.788 747.709 456.401 747.968 455.974 748.141C455.547 748.313 455.089 748.394 454.629 748.38C454.155 748.381 453.685 748.286 453.248 748.101C452.811 747.915 452.417 747.643 452.089 747.3C451.37 746.577 450.808 745.714 450.438 744.764C450.069 743.814 449.898 742.798 449.939 741.78C449.928 740.578 450.183 739.389 450.686 738.298C451.189 737.207 451.928 736.241 452.849 735.47ZM452.299 753.14C453.643 751.791 455.414 750.949 457.309 750.76C459.204 750.57 461.107 751.043 462.692 752.099C464.277 753.155 465.447 754.728 466.002 756.55C466.557 758.372 466.463 760.331 465.736 762.091C465.008 763.851 463.693 765.305 462.014 766.204C460.335 767.103 458.396 767.392 456.528 767.022C454.66 766.651 452.978 765.644 451.769 764.172C450.56 762.7 449.899 760.854 449.899 758.95C449.881 757.869 450.084 756.795 450.497 755.796C450.91 754.797 451.523 753.893 452.299 753.14ZM450.239 804.39C450.079 804.224 449.971 804.016 449.928 803.79C449.885 803.564 449.909 803.33 449.998 803.117C450.086 802.905 450.234 802.723 450.425 802.593C450.615 802.464 450.839 802.393 451.069 802.39H452.359C450.996 801.055 450.139 799.287 449.935 797.39C449.73 795.493 450.192 793.584 451.24 791.99C452.288 790.395 453.857 789.214 455.68 788.649C457.502 788.084 459.465 788.17 461.231 788.892C462.997 789.613 464.458 790.927 465.363 792.606C466.268 794.286 466.561 796.228 466.192 798.1C465.823 799.973 464.816 801.658 463.341 802.87C461.867 804.081 460.017 804.742 458.109 804.74H451.109C450.947 804.747 450.786 804.72 450.636 804.659C450.486 804.599 450.351 804.507 450.239 804.39ZM468.529 808.84L461.529 820.52C461.426 820.713 461.274 820.874 461.087 820.989C460.901 821.103 460.688 821.165 460.469 821.17C460.26 821.157 460.059 821.09 459.883 820.977C459.708 820.863 459.565 820.705 459.469 820.52L452.469 808.84C452.367 808.66 452.315 808.456 452.319 808.25C452.318 808.096 452.349 807.945 452.409 807.803C452.469 807.662 452.558 807.535 452.669 807.43C452.775 807.316 452.904 807.226 453.047 807.166C453.19 807.106 453.344 807.076 453.499 807.08C453.703 807.087 453.902 807.145 454.077 807.25C454.252 807.355 454.397 807.503 454.499 807.68L460.499 817.68L466.499 807.68C466.6 807.502 466.745 807.354 466.921 807.249C467.096 807.144 467.295 807.086 467.499 807.08C467.809 807.082 468.105 807.207 468.323 807.425C468.542 807.644 468.666 807.94 468.669 808.25C468.676 808.455 468.628 808.659 468.529 808.84ZM473.059 785.61C472.951 785.72 472.822 785.807 472.679 785.866C472.536 785.924 472.383 785.953 472.229 785.95H458.109C456.21 785.948 454.371 785.287 452.904 784.082C451.438 782.876 450.434 781.199 450.065 779.337C449.696 777.474 449.984 775.541 450.879 773.867C451.775 772.193 453.223 770.881 454.977 770.154C456.732 769.428 458.683 769.332 460.5 769.883C462.317 770.434 463.887 771.597 464.943 773.176C465.998 774.754 466.474 776.649 466.289 778.539C466.105 780.429 465.27 782.196 463.929 783.54L463.869 783.6H472.229C472.384 783.599 472.537 783.629 472.68 783.689C472.823 783.75 472.952 783.838 473.059 783.95C473.171 784.057 473.26 784.186 473.32 784.328C473.381 784.471 473.411 784.625 473.409 784.78C473.409 784.935 473.378 785.088 473.318 785.23C473.258 785.373 473.17 785.502 473.059 785.61Z" fill="url(#paint51_linear_48_105)"/>
<path d="M728.201 413.19C728.611 400.26 728.411 379.91 723.821 371.02C716.531 356.91 723.331 341.85 738.241 357.26C746.741 366.04 750.911 377.69 752.931 386.08" stroke="url(#paint52_linear_48_105)" stroke-width="6" stroke-linecap="round" stroke-linejoin="round"/>
<path d="M854.101 392.441C868.499 392.441 880.171 380.769 880.171 366.371C880.171 351.973 868.499 340.301 854.101 340.301C839.703 340.301 828.031 351.973 828.031 366.371C828.031 380.769 839.703 392.441 854.101 392.441Z" stroke="url(#paint53_linear_48_105)" stroke-width="6" stroke-linecap="round" stroke-linejoin="round"/>
<path d="M685.24 843.52C761.44 837.83 776.6 579.29 779.24 570.46C784.53 553.02 767.92 548.93 770.1 535.12C772.28 521.31 770.59 515.12 770.59 515.12C734.82 509.3 700.08 464.32 700.08 464.32C700.08 464.32 696.48 466.95 686.23 475.71C675.98 484.47 664.54 471.01 652.84 484.43C645.12 493.38 561 634.6 561 634.6" stroke="url(#paint54_linear_48_105)" stroke-width="6" stroke-linecap="round" stroke-linejoin="round"/>
<path d="M773.192 534.71C775.672 519.84 776.652 513.37 776.652 513.37C738.562 507.51 699.282 459.48 699.282 459.48C699.282 459.48 695.402 462.34 684.382 471.87C679.942 475.71 675.382 475.68 670.602 475.22C667.232 516.93 742.052 554.06 777.492 555.81C775.232 545.79 771.322 546 773.192 534.71Z" fill="url(#paint55_linear_48_105)"/>
<path d="M511.48 610.911C511.48 610.911 556.58 571.991 582.76 596.511" stroke="url(#paint56_linear_48_105)" stroke-width="6" stroke-linecap="round" stroke-linejoin="round"/>
<path d="M684.441 495.721L760.001 539.651L797.821 450.231C834.311 450.291 834.151 430.471 826.511 429.791C818.871 429.111 782.181 434.261 782.181 434.261C782.181 434.261 783.371 431.591 813.181 425.931C842.991 420.271 837.391 403.661 830.981 403.211C824.571 402.761 777.201 414.631 777.201 414.631L817.901 400.101C832.391 395.501 832.901 381.461 825.331 379.481C820.331 378.171 793.671 386.23 772.571 393.61C772.571 393.61 797.931 380.611 809.961 372.751C821.991 364.891 813.581 354.641 806.551 355.281C799.521 355.921 750.681 388.581 741.381 396.671C732.081 404.761 684.441 495.721 684.441 495.721Z" stroke="url(#paint57_linear_48_105)" stroke-width="6" stroke-linecap="round" stroke-linejoin="round"/>
<path d="M635.242 734.65C636.617 734.325 638.014 734.108 639.422 734C643.243 733.722 647.078 734.29 650.655 735.662C654.231 737.035 657.461 739.179 660.115 741.942C662.769 744.704 664.781 748.018 666.009 751.647C667.237 755.276 667.65 759.13 667.218 762.937C666.787 766.743 665.522 770.408 663.513 773.67C661.505 776.932 658.802 779.712 655.597 781.811C652.393 783.909 648.765 785.276 644.972 785.814C641.179 786.351 637.314 786.046 633.652 784.92" stroke="url(#paint58_linear_48_105)" stroke-width="6" stroke-linecap="round" stroke-linejoin="round"/>
<path d="M527.102 724.711V810.521C527.102 818.477 530.262 826.108 535.888 831.734C541.514 837.36 549.145 840.521 557.102 840.521H607.702C615.658 840.521 623.289 837.36 628.915 831.734C634.541 826.108 637.702 818.477 637.702 810.521V724.711H527.102ZM571.842 787.541C572.15 787.719 572.405 787.976 572.581 788.285C572.756 788.594 572.847 788.945 572.842 789.301C572.842 789.831 572.631 790.34 572.256 790.715C571.881 791.09 571.372 791.301 570.842 791.301C570.492 791.306 570.147 791.22 569.842 791.051L549.842 779.051C549.498 778.889 549.207 778.633 549.004 778.313C548.8 777.992 548.692 777.621 548.692 777.241C548.692 776.861 548.8 776.489 549.004 776.169C549.207 775.848 549.498 775.592 549.842 775.431L569.842 763.431C570.147 763.262 570.492 763.175 570.842 763.181C571.106 763.181 571.367 763.233 571.611 763.334C571.854 763.435 572.076 763.584 572.262 763.771C572.453 763.954 572.604 764.174 572.706 764.419C572.807 764.663 572.857 764.926 572.852 765.191C572.857 765.547 572.766 765.897 572.591 766.207C572.415 766.516 572.16 766.773 571.852 766.951L554.642 777.271L571.842 787.541ZM596.842 757.961L580.742 798.211C580.636 798.415 580.497 798.601 580.332 798.761C580.145 798.951 579.923 799.102 579.677 799.205C579.432 799.308 579.168 799.361 578.902 799.361C578.371 799.361 577.862 799.15 577.487 798.775C577.112 798.4 576.902 797.891 576.902 797.361C576.901 797.069 576.959 796.78 577.072 796.511L593.172 756.261C593.283 756.046 593.428 755.85 593.602 755.681C593.785 755.493 594.004 755.345 594.247 755.245C594.489 755.145 594.749 755.096 595.012 755.101C595.542 755.101 596.051 755.312 596.426 755.687C596.801 756.062 597.012 756.57 597.012 757.101C597.02 757.409 596.965 757.715 596.852 758.001L596.842 757.961ZM624.092 779.001L604.092 791.001C603.786 791.17 603.441 791.256 603.092 791.251C602.561 791.251 602.052 791.04 601.677 790.665C601.302 790.29 601.092 789.781 601.092 789.251C601.087 788.895 601.177 788.544 601.352 788.235C601.528 787.926 601.783 787.669 602.092 787.491L619.292 777.181L602.092 766.861C601.783 766.683 601.528 766.426 601.352 766.117C601.177 765.807 601.087 765.457 601.092 765.101C601.086 764.836 601.136 764.573 601.237 764.329C601.339 764.084 601.49 763.864 601.682 763.681C601.868 763.494 602.089 763.345 602.333 763.244C602.576 763.143 602.838 763.091 603.102 763.091C603.451 763.085 603.796 763.172 604.102 763.341L624.102 775.341C624.445 775.502 624.736 775.758 624.939 776.079C625.143 776.399 625.251 776.771 625.251 777.151C625.251 777.531 625.143 777.902 624.939 778.223C624.736 778.543 624.445 778.799 624.102 778.961L624.092 779.001Z" fill="url(#paint59_linear_48_105)"/>
<path d="M3 843.031H1639.48" stroke="url(#paint60_linear_48_105)" stroke-width="6" stroke-linecap="round" stroke-linejoin="round"/>
<path d="M853.73 417.001L848.19 331.371L737.82 338.521L741.57 396.461C751.38 388.071 799.57 355.891 806.52 355.261C813.47 354.631 821.96 364.881 809.93 372.731C797.9 380.581 772.54 393.591 772.54 393.591C793.64 386.211 820.33 378.151 825.3 379.461C832.88 381.461 832.36 395.461 817.87 400.081L777.17 414.611C777.17 414.611 824.54 402.741 830.95 403.191C837.36 403.641 842.95 420.251 813.15 425.911C783.35 431.571 782.15 434.241 782.15 434.241C782.15 434.241 818.85 429.081 826.48 429.771C834.11 430.461 834.28 450.271 797.79 450.211L797.58 450.701L825.7 448.881C829.635 448.63 833.481 447.607 837.02 445.869C840.559 444.13 843.72 441.712 846.323 438.751C848.926 435.79 850.92 432.345 852.191 428.613C853.462 424.881 853.985 420.935 853.73 417.001Z" fill="url(#paint61_linear_48_105)"/>
<defs>
<linearGradient id="paint0_linear_48_105" x1="1611.4" y1="2360.09" x2="-689.103" y2="381.575" gradientUnits="userSpaceOnUse">
<stop stop-color="#A30D51"/>
<stop offset="0.304416" stop-color="#DD1064"/>
<stop offset="0.768994" stop-color="#3366CC"/>
<stop offset="1" stop-color="#2AFFDE"/>
</linearGradient>
<linearGradient id="paint1_linear_48_105" x1="1772.09" y1="3310.49" x2="-1343.92" y2="1437.51" gradientUnits="userSpaceOnUse">
<stop stop-color="#A30D51"/>
<stop offset="0.304416" stop-color="#DD1064"/>
<stop offset="0.768994" stop-color="#3366CC"/>
<stop offset="1" stop-color="#2AFFDE"/>
</linearGradient>
<linearGradient id="paint2_linear_48_105" x1="965.693" y1="714.405" x2="422.507" y2="-60.867" gradientUnits="userSpaceOnUse">
<stop stop-color="#A30D51"/>
<stop offset="0.304416" stop-color="#DD1064"/>
<stop offset="0.768994" stop-color="#3366CC"/>
<stop offset="1" stop-color="#2AFFDE"/>
</linearGradient>
<linearGradient id="paint3_linear_48_105" x1="1218.16" y1="1895.25" x2="-550.988" y2="1200.51" gradientUnits="userSpaceOnUse">
<stop stop-color="#A30D51"/>
<stop offset="0.304416" stop-color="#DD1064"/>
<stop offset="0.768994" stop-color="#3366CC"/>
<stop offset="1" stop-color="#2AFFDE"/>
</linearGradient>
<linearGradient id="paint4_linear_48_105" x1="2640.98" y1="3276.98" x2="-755.728" y2="564.121" gradientUnits="userSpaceOnUse">
<stop stop-color="#A30D51"/>
<stop offset="0.304416" stop-color="#DD1064"/>
<stop offset="0.768994" stop-color="#3366CC"/>
<stop offset="1" stop-color="#2AFFDE"/>
</linearGradient>
<linearGradient id="paint5_linear_48_105" x1="914.784" y1="1203" x2="726.359" y2="1180" gradientUnits="userSpaceOnUse">
<stop stop-color="#A30D51"/>
<stop offset="0.304416" stop-color="#DD1064"/>
<stop offset="0.768994" stop-color="#3366CC"/>
<stop offset="1" stop-color="#2AFFDE"/>
</linearGradient>
<linearGradient id="paint6_linear_48_105" x1="1119.01" y1="1006.12" x2="548.709" y2="689.212" gradientUnits="userSpaceOnUse">
<stop stop-color="#A30D51"/>
<stop offset="0.304416" stop-color="#DD1064"/>
<stop offset="0.768994" stop-color="#3366CC"/>
<stop offset="1" stop-color="#2AFFDE"/>
</linearGradient>
<linearGradient id="paint7_linear_48_105" x1="1227.26" y1="989.016" x2="632.251" y2="5.04572" gradientUnits="userSpaceOnUse">
<stop stop-color="#A30D51"/>
<stop offset="0.304416" stop-color="#DD1064"/>
<stop offset="0.768994" stop-color="#3366CC"/>
<stop offset="1" stop-color="#2AFFDE"/>
</linearGradient>
<linearGradient id="paint8_linear_48_105" x1="814.593" y1="594.357" x2="423.137" y2="232.955" gradientUnits="userSpaceOnUse">
<stop stop-color="#A30D51"/>
<stop offset="0.304416" stop-color="#DD1064"/>
<stop offset="0.768994" stop-color="#3366CC"/>
<stop offset="1" stop-color="#2AFFDE"/>
</linearGradient>
<linearGradient id="paint9_linear_48_105" x1="1648.22" y1="1257.59" x2="322.197" y2="-302.725" gradientUnits="userSpaceOnUse">
<stop stop-color="#A30D51"/>
<stop offset="0.304416" stop-color="#DD1064"/>
<stop offset="0.768994" stop-color="#3366CC"/>
<stop offset="1" stop-color="#2AFFDE"/>
</linearGradient>
<linearGradient id="paint10_linear_48_105" x1="1687.89" y1="1077.64" x2="848.342" y2="-358.281" gradientUnits="userSpaceOnUse">
<stop stop-color="#A30D51"/>
<stop offset="0.304416" stop-color="#DD1064"/>
<stop offset="0.768994" stop-color="#3366CC"/>
<stop offset="1" stop-color="#2AFFDE"/>
</linearGradient>
<linearGradient id="paint11_linear_48_105" x1="2210.14" y1="1657.04" x2="299.741" y2="-769.728" gradientUnits="userSpaceOnUse">
<stop stop-color="#A30D51"/>
<stop offset="0.304416" stop-color="#DD1064"/>
<stop offset="0.768994" stop-color="#3366CC"/>
<stop offset="1" stop-color="#2AFFDE"/>
</linearGradient>
<linearGradient id="paint12_linear_48_105" x1="857.87" y1="547.41" x2="601.501" y2="434.762" gradientUnits="userSpaceOnUse">
<stop stop-color="#A30D51"/>
<stop offset="0.304416" stop-color="#DD1064"/>
<stop offset="0.768994" stop-color="#3366CC"/>
<stop offset="1" stop-color="#2AFFDE"/>
</linearGradient>
<linearGradient id="paint13_linear_48_105" x1="836.953" y1="439.554" x2="705.83" y2="290.402" gradientUnits="userSpaceOnUse">
<stop stop-color="#A30D51"/>
<stop offset="0.304416" stop-color="#DD1064"/>
<stop offset="0.768994" stop-color="#3366CC"/>
<stop offset="1" stop-color="#2AFFDE"/>
</linearGradient>
<linearGradient id="paint14_linear_48_105" x1="849.418" y1="325.154" x2="721.043" y2="272.583" gradientUnits="userSpaceOnUse">
<stop stop-color="#A30D51"/>
<stop offset="0.304416" stop-color="#DD1064"/>
<stop offset="0.768994" stop-color="#3366CC"/>
<stop offset="1" stop-color="#2AFFDE"/>
</linearGradient>
<linearGradient id="paint15_linear_48_105" x1="798.567" y1="336.93" x2="670.191" y2="284.358" gradientUnits="userSpaceOnUse">
<stop stop-color="#A30D51"/>
<stop offset="0.304416" stop-color="#DD1064"/>
<stop offset="0.768994" stop-color="#3366CC"/>
<stop offset="1" stop-color="#2AFFDE"/>
</linearGradient>
<linearGradient id="paint16_linear_48_105" x1="801.389" y1="301.71" x2="709.052" y2="154.563" gradientUnits="userSpaceOnUse">
<stop stop-color="#A30D51"/>
<stop offset="0.304416" stop-color="#DD1064"/>
<stop offset="0.768994" stop-color="#3366CC"/>
<stop offset="1" stop-color="#2AFFDE"/>
</linearGradient>
<linearGradient id="paint17_linear_48_105" x1="868.427" y1="235.368" x2="847.81" y2="156.554" gradientUnits="userSpaceOnUse">
<stop stop-color="#A30D51"/>
<stop offset="0.304416" stop-color="#DD1064"/>
<stop offset="0.768994" stop-color="#3366CC"/>
<stop offset="1" stop-color="#2AFFDE"/>
</linearGradient>
<linearGradient id="paint18_linear_48_105" x1="3931.28" y1="2196.93" x2="2588.08" y2="-1138.15" gradientUnits="userSpaceOnUse">
<stop stop-color="#A30D51"/>
<stop offset="0.304416" stop-color="#DD1064"/>
<stop offset="0.768994" stop-color="#3366CC"/>
<stop offset="1" stop-color="#2AFFDE"/>
</linearGradient>
<linearGradient id="paint19_linear_48_105" x1="1237.06" y1="275.692" x2="1114.3" y2="173.755" gradientUnits="userSpaceOnUse">
<stop stop-color="#A30D51"/>
<stop offset="0.304416" stop-color="#DD1064"/>
<stop offset="0.768994" stop-color="#3366CC"/>
<stop offset="1" stop-color="#2AFFDE"/>
</linearGradient>
<linearGradient id="paint20_linear_48_105" x1="1566.95" y1="311.535" x2="1524.51" y2="69.2015" gradientUnits="userSpaceOnUse">
<stop stop-color="#A30D51"/>
<stop offset="0.304416" stop-color="#DD1064"/>
<stop offset="0.768994" stop-color="#3366CC"/>
<stop offset="1" stop-color="#2AFFDE"/>
</linearGradient>
<linearGradient id="paint21_linear_48_105" x1="1609.51" y1="394.634" x2="1570.41" y2="151.148" gradientUnits="userSpaceOnUse">
<stop stop-color="#A30D51"/>
<stop offset="0.304416" stop-color="#DD1064"/>
<stop offset="0.768994" stop-color="#3366CC"/>
<stop offset="1" stop-color="#2AFFDE"/>
</linearGradient>
<linearGradient id="paint22_linear_48_105" x1="1649.21" y1="331.122" x2="1623.62" y2="84.0054" gradientUnits="userSpaceOnUse">
<stop stop-color="#A30D51"/>
<stop offset="0.304416" stop-color="#DD1064"/>
<stop offset="0.768994" stop-color="#3366CC"/>
<stop offset="1" stop-color="#2AFFDE"/>
</linearGradient>
<linearGradient id="paint23_linear_48_105" x1="1566.98" y1="331.122" x2="1520.8" y2="90.2096" gradientUnits="userSpaceOnUse">
<stop stop-color="#A30D51"/>
<stop offset="0.304416" stop-color="#DD1064"/>
<stop offset="0.768994" stop-color="#3366CC"/>
<stop offset="1" stop-color="#2AFFDE"/>
</linearGradient>
<linearGradient id="paint24_linear_48_105" x1="1447.14" y1="339.304" x2="1324.38" y2="237.368" gradientUnits="userSpaceOnUse">
<stop stop-color="#A30D51"/>
<stop offset="0.304416" stop-color="#DD1064"/>
<stop offset="0.768994" stop-color="#3366CC"/>
<stop offset="1" stop-color="#2AFFDE"/>
</linearGradient>
<linearGradient id="paint25_linear_48_105" x1="1919.03" y1="339.255" x2="1894.27" y2="91.9686" gradientUnits="userSpaceOnUse">
<stop stop-color="#A30D51"/>
<stop offset="0.304416" stop-color="#DD1064"/>
<stop offset="0.768994" stop-color="#3366CC"/>
<stop offset="1" stop-color="#2AFFDE"/>
</linearGradient>
<linearGradient id="paint26_linear_48_105" x1="1680.59" y1="311.535" x2="1638.15" y2="69.2015" gradientUnits="userSpaceOnUse">
<stop stop-color="#A30D51"/>
<stop offset="0.304416" stop-color="#DD1064"/>
<stop offset="0.768994" stop-color="#3366CC"/>
<stop offset="1" stop-color="#2AFFDE"/>
</linearGradient>
<linearGradient id="paint27_linear_48_105" x1="1645.78" y1="303.779" x2="1610.6" y2="57.5017" gradientUnits="userSpaceOnUse">
<stop stop-color="#A30D51"/>
<stop offset="0.304416" stop-color="#DD1064"/>
<stop offset="0.768994" stop-color="#3366CC"/>
<stop offset="1" stop-color="#2AFFDE"/>
</linearGradient>
<linearGradient id="paint28_linear_48_105" x1="1566.95" y1="490.906" x2="1524.51" y2="248.572" gradientUnits="userSpaceOnUse">
<stop stop-color="#A30D51"/>
<stop offset="0.304416" stop-color="#DD1064"/>
<stop offset="0.768994" stop-color="#3366CC"/>
<stop offset="1" stop-color="#2AFFDE"/>
</linearGradient>
<linearGradient id="paint29_linear_48_105" x1="1609.51" y1="574.005" x2="1570.41" y2="330.519" gradientUnits="userSpaceOnUse">
<stop stop-color="#A30D51"/>
<stop offset="0.304416" stop-color="#DD1064"/>
<stop offset="0.768994" stop-color="#3366CC"/>
<stop offset="1" stop-color="#2AFFDE"/>
</linearGradient>
<linearGradient id="paint30_linear_48_105" x1="1649.21" y1="510.503" x2="1623.62" y2="263.386" gradientUnits="userSpaceOnUse">
<stop stop-color="#A30D51"/>
<stop offset="0.304416" stop-color="#DD1064"/>
<stop offset="0.768994" stop-color="#3366CC"/>
<stop offset="1" stop-color="#2AFFDE"/>
</linearGradient>
<linearGradient id="paint31_linear_48_105" x1="1566.98" y1="510.503" x2="1520.8" y2="269.59" gradientUnits="userSpaceOnUse">
<stop stop-color="#A30D51"/>
<stop offset="0.304416" stop-color="#DD1064"/>
<stop offset="0.768994" stop-color="#3366CC"/>
<stop offset="1" stop-color="#2AFFDE"/>
</linearGradient>
<linearGradient id="paint32_linear_48_105" x1="1447.14" y1="518.675" x2="1324.38" y2="416.739" gradientUnits="userSpaceOnUse">
<stop stop-color="#A30D51"/>
<stop offset="0.304416" stop-color="#DD1064"/>
<stop offset="0.768994" stop-color="#3366CC"/>
<stop offset="1" stop-color="#2AFFDE"/>
</linearGradient>
<linearGradient id="paint33_linear_48_105" x1="1469.98" y1="490.906" x2="1347.23" y2="388.969" gradientUnits="userSpaceOnUse">
<stop stop-color="#A30D51"/>
<stop offset="0.304416" stop-color="#DD1064"/>
<stop offset="0.768994" stop-color="#3366CC"/>
<stop offset="1" stop-color="#2AFFDE"/>
</linearGradient>
<linearGradient id="paint34_linear_48_105" x1="1919.03" y1="518.624" x2="1894.27" y2="271.338" gradientUnits="userSpaceOnUse">
<stop stop-color="#A30D51"/>
<stop offset="0.304416" stop-color="#DD1064"/>
<stop offset="0.768994" stop-color="#3366CC"/>
<stop offset="1" stop-color="#2AFFDE"/>
</linearGradient>
<linearGradient id="paint35_linear_48_105" x1="1568.97" y1="455.063" x2="1533.55" y2="210.426" gradientUnits="userSpaceOnUse">
<stop stop-color="#A30D51"/>
<stop offset="0.304416" stop-color="#DD1064"/>
<stop offset="0.768994" stop-color="#3366CC"/>
<stop offset="1" stop-color="#2AFFDE"/>
</linearGradient>
<linearGradient id="paint36_linear_48_105" x1="1619.14" y1="455.063" x2="1576.7" y2="212.73" gradientUnits="userSpaceOnUse">
<stop stop-color="#A30D51"/>
<stop offset="0.304416" stop-color="#DD1064"/>
<stop offset="0.768994" stop-color="#3366CC"/>
<stop offset="1" stop-color="#2AFFDE"/>
</linearGradient>
<linearGradient id="paint37_linear_48_105" x1="1237.06" y1="428.253" x2="1114.3" y2="326.316" gradientUnits="userSpaceOnUse">
<stop stop-color="#A30D51"/>
<stop offset="0.304416" stop-color="#DD1064"/>
<stop offset="0.768994" stop-color="#3366CC"/>
<stop offset="1" stop-color="#2AFFDE"/>
</linearGradient>
<linearGradient id="paint38_linear_48_105" x1="1566.95" y1="464.095" x2="1524.51" y2="221.762" gradientUnits="userSpaceOnUse">
<stop stop-color="#A30D51"/>
<stop offset="0.304416" stop-color="#DD1064"/>
<stop offset="0.768994" stop-color="#3366CC"/>
<stop offset="1" stop-color="#2AFFDE"/>
</linearGradient>
<linearGradient id="paint39_linear_48_105" x1="1680.59" y1="464.095" x2="1638.15" y2="221.762" gradientUnits="userSpaceOnUse">
<stop stop-color="#A30D51"/>
<stop offset="0.304416" stop-color="#DD1064"/>
<stop offset="0.768994" stop-color="#3366CC"/>
<stop offset="1" stop-color="#2AFFDE"/>
</linearGradient>
<linearGradient id="paint40_linear_48_105" x1="1645.78" y1="483.16" x2="1610.6" y2="236.883" gradientUnits="userSpaceOnUse">
<stop stop-color="#A30D51"/>
<stop offset="0.304416" stop-color="#DD1064"/>
<stop offset="0.768994" stop-color="#3366CC"/>
<stop offset="1" stop-color="#2AFFDE"/>
</linearGradient>
<linearGradient id="paint41_linear_48_105" x1="1666.01" y1="1040.81" x2="1315.68" y2="775.574" gradientUnits="userSpaceOnUse">
<stop stop-color="#A30D51"/>
<stop offset="0.304416" stop-color="#DD1064"/>
<stop offset="0.768994" stop-color="#3366CC"/>
<stop offset="1" stop-color="#2AFFDE"/>
</linearGradient>
<linearGradient id="paint42_linear_48_105" x1="1579.35" y1="961.108" x2="1262.52" y2="665.905" gradientUnits="userSpaceOnUse">
<stop stop-color="#A30D51"/>
<stop offset="0.304416" stop-color="#DD1064"/>
<stop offset="0.768994" stop-color="#3366CC"/>
<stop offset="1" stop-color="#2AFFDE"/>
</linearGradient>
<linearGradient id="paint43_linear_48_105" x1="1957.73" y1="1406.33" x2="1152.07" y2="531.117" gradientUnits="userSpaceOnUse">
<stop stop-color="#A30D51"/>
<stop offset="0.304416" stop-color="#DD1064"/>
<stop offset="0.768994" stop-color="#3366CC"/>
<stop offset="1" stop-color="#2AFFDE"/>
</linearGradient>
<linearGradient id="paint44_linear_48_105" x1="368.42" y1="1040.82" x2="40.0709" y2="833.921" gradientUnits="userSpaceOnUse">
<stop stop-color="#A30D51"/>
<stop offset="0.304416" stop-color="#DD1064"/>
<stop offset="0.768994" stop-color="#3366CC"/>
<stop offset="1" stop-color="#2AFFDE"/>
</linearGradient>
<linearGradient id="paint45_linear_48_105" x1="820.814" y1="1406.33" x2="15.1591" y2="531.044" gradientUnits="userSpaceOnUse">
<stop stop-color="#A30D51"/>
<stop offset="0.304416" stop-color="#DD1064"/>
<stop offset="0.768994" stop-color="#3366CC"/>
<stop offset="1" stop-color="#2AFFDE"/>
</linearGradient>
<linearGradient id="paint46_linear_48_105" x1="485.226" y1="811.343" x2="329.36" y2="713.655" gradientUnits="userSpaceOnUse">
<stop stop-color="#A30D51"/>
<stop offset="0.304416" stop-color="#DD1064"/>
<stop offset="0.768994" stop-color="#3366CC"/>
<stop offset="1" stop-color="#2AFFDE"/>
</linearGradient>
<linearGradient id="paint47_linear_48_105" x1="793.618" y1="698.667" x2="793.456" y2="684.708" gradientUnits="userSpaceOnUse">
<stop stop-color="#A30D51"/>
<stop offset="0.304416" stop-color="#DD1064"/>
<stop offset="0.768994" stop-color="#3366CC"/>
<stop offset="1" stop-color="#2AFFDE"/>
</linearGradient>
<linearGradient id="paint48_linear_48_105" x1="513.952" y1="841.285" x2="432.26" y2="748.356" gradientUnits="userSpaceOnUse">
<stop stop-color="#A30D51"/>
<stop offset="0.304416" stop-color="#DD1064"/>
<stop offset="0.768994" stop-color="#3366CC"/>
<stop offset="1" stop-color="#2AFFDE"/>
</linearGradient>
<linearGradient id="paint49_linear_48_105" x1="513.736" y1="822.178" x2="432.459" y2="729.725" gradientUnits="userSpaceOnUse">
<stop stop-color="#A30D51"/>
<stop offset="0.304416" stop-color="#DD1064"/>
<stop offset="0.768994" stop-color="#3366CC"/>
<stop offset="1" stop-color="#2AFFDE"/>
</linearGradient>
<linearGradient id="paint50_linear_48_105" x1="513.984" y1="860.036" x2="432.285" y2="767.11" gradientUnits="userSpaceOnUse">
<stop stop-color="#A30D51"/>
<stop offset="0.304416" stop-color="#DD1064"/>
<stop offset="0.768994" stop-color="#3366CC"/>
<stop offset="1" stop-color="#2AFFDE"/>
</linearGradient>
<linearGradient id="paint51_linear_48_105" x1="882.895" y1="1557.13" x2="-94.0668" y2="840.381" gradientUnits="userSpaceOnUse">
<stop stop-color="#A30D51"/>
<stop offset="0.304416" stop-color="#DD1064"/>
<stop offset="0.768994" stop-color="#3366CC"/>
<stop offset="1" stop-color="#2AFFDE"/>
</linearGradient>
<linearGradient id="paint52_linear_48_105" x1="888.66" y1="718.155" x2="509.127" y2="496.474" gradientUnits="userSpaceOnUse">
<stop stop-color="#A30D51"/>
<stop offset="0.304416" stop-color="#DD1064"/>
<stop offset="0.768994" stop-color="#3366CC"/>
<stop offset="1" stop-color="#2AFFDE"/>
</linearGradient>
<linearGradient id="paint53_linear_48_105" x1="1100.97" y1="647.179" x2="739.997" y2="236.577" gradientUnits="userSpaceOnUse">
<stop stop-color="#A30D51"/>
<stop offset="0.304416" stop-color="#DD1064"/>
<stop offset="0.768994" stop-color="#3366CC"/>
<stop offset="1" stop-color="#2AFFDE"/>
</linearGradient>
<linearGradient id="paint54_linear_48_105" x1="1708.89" y1="2696.16" x2="-721.806" y2="1097.25" gradientUnits="userSpaceOnUse">
<stop stop-color="#A30D51"/>
<stop offset="0.304416" stop-color="#DD1064"/>
<stop offset="0.768994" stop-color="#3366CC"/>
<stop offset="1" stop-color="#2AFFDE"/>
</linearGradient>
<linearGradient id="paint55_linear_48_105" x1="1230.6" y1="1026.45" x2="576.141" y2="199.536" gradientUnits="userSpaceOnUse">
<stop stop-color="#A30D51"/>
<stop offset="0.304416" stop-color="#DD1064"/>
<stop offset="0.768994" stop-color="#3366CC"/>
<stop offset="1" stop-color="#2AFFDE"/>
</linearGradient>
<linearGradient id="paint56_linear_48_105" x1="884.607" y1="720.873" x2="803.622" y2="429.128" gradientUnits="userSpaceOnUse">
<stop stop-color="#A30D51"/>
<stop offset="0.304416" stop-color="#DD1064"/>
<stop offset="0.768994" stop-color="#3366CC"/>
<stop offset="1" stop-color="#2AFFDE"/>
</linearGradient>
<linearGradient id="paint57_linear_48_105" x1="1478.18" y1="1440.56" x2="193.833" y2="239.22" gradientUnits="userSpaceOnUse">
<stop stop-color="#A30D51"/>
<stop offset="0.304416" stop-color="#DD1064"/>
<stop offset="0.768994" stop-color="#3366CC"/>
<stop offset="1" stop-color="#2AFFDE"/>
</linearGradient>
<linearGradient id="paint58_linear_48_105" x1="810.226" y1="1040.81" x2="462.725" y2="785.084" gradientUnits="userSpaceOnUse">
<stop stop-color="#A30D51"/>
<stop offset="0.304416" stop-color="#DD1064"/>
<stop offset="0.768994" stop-color="#3366CC"/>
<stop offset="1" stop-color="#2AFFDE"/>
</linearGradient>
<linearGradient id="paint59_linear_48_105" x1="1106.05" y1="1406.33" x2="300.394" y2="531.117" gradientUnits="userSpaceOnUse">
<stop stop-color="#A30D51"/>
<stop offset="0.304416" stop-color="#DD1064"/>
<stop offset="0.768994" stop-color="#3366CC"/>
<stop offset="1" stop-color="#2AFFDE"/>
</linearGradient>
<linearGradient id="paint60_linear_48_105" x1="8569.41" y1="848.917" x2="8569.4" y2="834.956" gradientUnits="userSpaceOnUse">
<stop stop-color="#A30D51"/>
<stop offset="0.304416" stop-color="#DD1064"/>
<stop offset="0.768994" stop-color="#3366CC"/>
<stop offset="1" stop-color="#2AFFDE"/>
</linearGradient>
<linearGradient id="paint61_linear_48_105" x1="1344.9" y1="1033.71" x2="516.074" y2="117.443" gradientUnits="userSpaceOnUse">
<stop stop-color="#A30D51"/>
<stop offset="0.304416" stop-color="#DD1064"/>
<stop offset="0.768994" stop-color="#3366CC"/>
<stop offset="1" stop-color="#2AFFDE"/>
</linearGradient>
</defs>
</svg>
