<svg width="2577" height="1226" viewBox="0 0 2577 1226" fill="none" xmlns="http://www.w3.org/2000/svg">
<path d="M379.008 463.208L378.207 1033.25C378.207 1082.55 389.792 1119.84 415.791 1154.18C448.825 1197.72 498.289 1223.66 551.589 1225.42C552.681 1225.5 553.782 1225.5 554.874 1225.48C555.9 1225.5 556.916 1225.5 557.913 1225.5C560.601 1225.5 563.209 1225.43 565.788 1225.29H565.878C568.181 1225.29 570.484 1225.02 572.732 1224.47L559.675 1170.97C563.785 1169.97 567.956 1169.97 572.081 1170.97L567.956 1169.96L563.725 1170.24C560.992 1170.43 558.178 1170.48 555.114 1170.39L553.076 1170.34L552.891 1170.36C516.448 1169 482.514 1151.01 459.689 1120.92C440.934 1096.15 433.279 1070.75 433.279 1033.29L434.08 467.363V463.208H379.008Z" fill="url(#paint0_linear_43_263)"/>
<path d="M682.241 462.551L681.29 474.066V494.493C681.29 604.537 681.29 714.531 681.09 824.025V826.328V827.83V832.336V833.137H736.162V826.378C736.207 826.128 736.162 825.882 736.162 825.622C736.362 715.432 736.362 604.637 736.362 493.692V475.768V462.551H682.241Z" fill="url(#paint1_linear_43_263)"/>
<path d="M227.815 -0.000428209C160.877 -0.000428209 100.248 35.5962 69.5624 92.8213C55.7393 118.655 48.4297 147.944 48.4297 177.477C48.4297 226.246 67.6049 271.806 102.405 305.85C134.993 337.692 179.001 355.315 226.463 355.516L228.215 355.466C229.317 355.466 231.77 355.466 236.777 355.516H236.977H237.132H237.327C240.582 355.516 248.847 355.466 257.048 355.466H257.153C295.704 355.466 331.996 372.788 354.231 401.781C368.95 420.951 377.456 443.726 379.013 468.163C379.113 469.265 379.163 470.361 379.213 471.468C379.263 472.869 379.313 474.321 379.313 475.768C379.313 477.225 379.263 478.677 379.213 480.079L434.085 482.978H434.18C434.336 480.58 434.386 478.227 434.386 475.768C434.386 473.32 434.336 470.967 434.235 468.964C434.18 468.113 434.18 467.262 434.085 466.411C434.085 465.31 433.985 464.258 433.885 463.207C431.477 428.611 419.116 395.868 397.943 368.282C365.345 325.777 312.726 300.398 257.153 300.398H257.003C248.692 300.398 240.286 300.443 237.177 300.443H236.977C231.47 300.398 228.366 300.398 226.763 300.443H226.563C193.62 300.293 163.18 288.278 140.896 266.499C116.774 242.918 103.502 211.272 103.502 177.477C103.502 156.7 108.408 136.929 118.121 118.85C139.199 79.5038 181.209 55.0717 227.815 55.0717H880.921C927.527 55.0717 969.587 79.5038 990.665 118.85C1000.38 136.929 1005.28 156.655 1005.28 177.477C1005.28 211.272 992.012 242.918 967.83 266.499C945.906 287.927 914.715 300.293 882.328 300.443H882.017C880.025 300.398 875.313 300.398 864.945 300.398C771.277 300.398 692.869 370.936 682.06 462.806C681.66 466.256 681.359 469.715 681.159 473.22C681.159 473.57 681.109 473.971 681.109 474.321V494.748C681.109 495.099 681.159 495.499 681.159 495.85L736.131 492.345C735.981 489.792 735.886 487.138 735.886 484.535C735.886 481.881 735.981 479.278 736.131 476.574C736.131 476.374 736.131 476.224 736.181 476.024C740.537 408.385 797.011 355.466 864.945 355.466C875.213 355.466 879.314 355.466 880.721 355.516H882.423C929.78 355.315 973.843 337.692 1006.34 305.85C1041.18 271.856 1060.36 226.246 1060.36 177.477C1060.36 147.893 1053.05 118.605 1039.18 92.8712C1008.54 35.5962 947.909 -0.000428209 880.921 -0.000428209H227.815Z" fill="url(#paint2_linear_43_263)"/>
<path d="M680.853 825.52L681.184 828.724L681.083 832.364C679.511 856.996 659.065 876.201 634.277 876.201C609.244 876.201 588.642 856.671 587.386 831.968C587.351 831.067 587.316 830.196 587.316 829.29C587.316 828.384 587.351 827.517 587.391 826.466L532.353 824.549C532.288 826.141 532.238 827.688 532.238 829.29C532.238 830.897 532.288 832.439 532.353 834.031L532.378 834.547C535.137 888.788 579.896 931.273 634.277 931.273C688.618 931.273 733.362 888.788 736.121 834.547L736.156 833.595C736.241 832.164 736.256 830.702 736.256 829.29C736.256 828.048 736.241 826.847 736.176 825.63C736.166 825.104 736.146 824.639 736.126 824.233H736.076C736.06 824.003 736.035 823.763 736.015 823.517L723.94 824.764L708.62 825.44H717.406H681.113C681.139 824.433 681.229 823.237 681.439 821.915L680.853 825.52Z" fill="url(#paint3_linear_43_263)"/>
<path d="M407.016 149.016L410.876 203.947C415.321 203.637 419.707 203.622 424.734 203.973C479.466 207.232 524.384 248.666 532.16 302.757V833.393H587.232V300.895L587.007 297.375C576.543 216.269 509.68 153.867 428.304 149.016C424.819 148.77 421.239 148.65 417.66 148.65C414.075 148.65 410.495 148.77 407.016 149.016Z" fill="url(#paint4_linear_43_263)"/>
<path d="M314.727 203.771H428.275V148.694H314.727V203.771Z" fill="url(#paint5_linear_43_263)"/>
<path d="M679.428 1071.74C678.101 1068.19 677.961 1065.45 677.951 1065.09C678.096 1072.35 672.774 1114.57 643.581 1142.86C622.779 1163.03 593.51 1172.19 556.537 1170.18L553.508 1225.17C557.949 1225.41 562.279 1225.53 566.505 1225.53C637.443 1225.53 677.435 1192.07 698.763 1163.06C729.033 1121.88 736.838 1068.04 731.011 1052.45L679.428 1071.74ZM677.951 1065.09C677.951 1065.08 677.951 1065.06 677.946 1065.05C677.946 1065.06 677.951 1065.07 677.951 1065.09Z" fill="url(#paint6_linear_43_263)"/>
<path d="M643.266 1022.04C643.266 1057.93 672.464 1087.12 708.356 1087.12C744.238 1087.12 773.436 1057.93 773.436 1022.04C773.436 986.153 744.238 956.954 708.356 956.954C672.464 956.954 643.266 986.153 643.266 1022.04Z" fill="url(#paint7_linear_43_263)"/>
<path d="M205.191 176.486C205.191 212.368 234.39 241.566 270.272 241.566C306.169 241.566 335.362 212.368 335.362 176.486C335.362 140.594 306.169 111.396 270.272 111.396C234.39 111.396 205.191 140.594 205.191 176.486Z" fill="url(#paint8_linear_43_263)"/>
<path fill-rule="evenodd" clip-rule="evenodd" d="M270.272 191.566C262.004 191.566 255.191 184.754 255.191 176.486C255.191 168.203 262.009 161.396 270.272 161.396C278.552 161.396 285.362 168.206 285.362 176.486C285.362 184.751 278.557 191.566 270.272 191.566ZM270.272 241.566C234.39 241.566 205.191 212.368 205.191 176.486C205.191 140.594 234.39 111.396 270.272 111.396C306.169 111.396 335.362 140.594 335.362 176.486C335.362 212.368 306.169 241.566 270.272 241.566Z" fill="url(#paint9_linear_43_263)"/>
<path d="M2528.57 432.625V629.745V643.034V644.511V735.319C2528.57 735.319 2527.83 765.589 2526.35 781.831C2525.62 799.549 2523.4 846.799 2492.39 894.787C2462.86 942.775 2405.28 955.326 2343.26 955.326H2327.02C2298.23 954.588 2268.7 951.635 2243.59 942.775L2269.43 880.76C2287.15 888.881 2310.78 894.049 2339.57 894.049H2346.95C2425.21 891.834 2464.34 852.705 2465.82 767.803V755.991C2437.76 779.616 2414.87 792.905 2380.18 795.858H2379.44H2371.32H2365.41H2366.15C2282.72 790.69 2225.88 730.889 2225.88 629.745V432.625H2288.63V641.558C2288.63 696.19 2326.28 733.104 2379.44 733.104C2428.16 733.104 2465.08 696.19 2465.08 641.558V432.625H2528.57Z" fill="#3369CC"/>
<path d="M2178.4 330.742C2098.66 330.742 2063.96 357.32 2059.53 432.624H2186.52V496.116H2058.06V789.951H1994.57V445.175C1996.78 425.242 2001.21 367.656 2024.84 330.742C2054.37 283.492 2111.95 270.203 2171.75 270.203H2187.26V330.742H2178.4Z" fill="#3369CC"/>
<path d="M1843.88 789.951V432.624H1907.37V789.951H1843.88ZM1914.76 309.332C1914.76 330.004 1897.04 347.722 1875.63 347.722C1854.96 347.722 1837.24 330.004 1837.24 309.332C1837.24 287.922 1854.96 270.203 1875.63 270.203C1897.04 270.203 1914.76 287.922 1914.76 309.332Z" fill="#3369CC"/>
<path d="M1792.55 728.674H1801.41V789.951H1787.39C1726.11 789.951 1669.26 775.924 1638.99 730.151C1615.37 692.499 1611.68 634.913 1609.46 614.979V343.293H1672.95V432.625H1800.68V496.117H1672.95V600.214C1672.95 690.284 1706.91 728.674 1792.55 728.674Z" fill="#3369CC"/>
<path d="M1441.38 789.952H1381.58C1352.79 789.952 1326.21 778.139 1307.75 758.944C1288.56 740.487 1276.75 713.909 1276.75 685.116H1340.24C1340.24 696.19 1344.67 706.526 1352.05 714.647C1360.17 722.03 1370.51 726.46 1381.58 726.46H1441.38C1452.46 726.46 1462.79 722.03 1470.17 714.647C1478.3 706.526 1482.73 696.19 1482.73 685.116C1482.73 673.304 1478.3 662.968 1470.17 655.585C1462.79 647.464 1452.46 643.034 1441.38 643.034H1381.58C1352.79 643.034 1326.21 631.222 1307.75 612.027C1288.56 593.57 1276.75 566.992 1276.75 538.199C1276.75 508.668 1288.56 482.09 1307.75 463.633C1326.21 444.437 1352.79 432.625 1381.58 432.625H1441.38C1470.18 432.625 1496.75 444.437 1515.21 463.633C1534.41 482.09 1546.22 508.668 1546.22 538.199H1482.73C1482.73 526.386 1478.3 516.05 1470.17 508.668C1462.79 500.547 1452.46 496.117 1441.38 496.117H1381.58C1370.51 496.117 1360.17 500.547 1352.05 508.668C1344.67 516.05 1340.24 526.386 1340.24 538.199C1340.24 549.273 1344.67 559.609 1352.05 567.73C1360.17 575.113 1370.51 579.542 1381.58 579.542H1441.38C1470.18 579.542 1496.75 591.355 1515.21 610.55C1534.41 629.007 1546.22 655.585 1546.22 685.116C1546.22 713.909 1534.41 740.487 1515.21 758.944C1496.75 778.139 1470.18 789.952 1441.38 789.952Z" fill="#3369CC"/>
<path d="M1228.16 610.55C1228.16 621.624 1227.42 632.698 1225.95 643.034H938.758C952.047 693.237 995.605 733.842 1048.02 733.842C1093.06 733.842 1132.19 718.339 1152.12 674.78H1217.83C1194.2 748.608 1128.5 795.858 1048.02 795.858C946.879 795.858 869.359 713.171 869.359 610.55C869.359 502.023 946.879 425.242 1048.02 425.242C1148.43 425.242 1228.16 499.808 1228.16 610.55ZM1050.98 486.519C994.867 486.519 946.879 525.648 935.804 586.187H1162.46C1152.86 524.171 1105.61 486.519 1050.98 486.519Z" fill="#3369CC"/>
<defs>
<linearGradient id="paint0_linear_43_263" x1="1104.21" y1="129.104" x2="203.028" y2="1154.2" gradientUnits="userSpaceOnUse">
<stop stop-color="#A30D51"/>
<stop offset="0.304416" stop-color="#DD1064"/>
<stop offset="0.768994" stop-color="#3366CC"/>
<stop offset="1" stop-color="#2AFFDE"/>
</linearGradient>
<linearGradient id="paint1_linear_43_263" x1="1138.84" y1="159.129" x2="237.659" y2="1184.22" gradientUnits="userSpaceOnUse">
<stop stop-color="#A30D51"/>
<stop offset="0.304416" stop-color="#DD1064"/>
<stop offset="0.768994" stop-color="#3366CC"/>
<stop offset="1" stop-color="#2AFFDE"/>
</linearGradient>
<linearGradient id="paint2_linear_43_263" x1="818.143" y1="-122.388" x2="-83.038" y2="902.706" gradientUnits="userSpaceOnUse">
<stop stop-color="#A30D51"/>
<stop offset="0.304416" stop-color="#DD1064"/>
<stop offset="0.768994" stop-color="#3366CC"/>
<stop offset="1" stop-color="#2AFFDE"/>
</linearGradient>
<linearGradient id="paint3_linear_43_263" x1="1194.94" y1="208.457" x2="293.754" y2="1233.55" gradientUnits="userSpaceOnUse">
<stop stop-color="#A30D51"/>
<stop offset="0.304416" stop-color="#DD1064"/>
<stop offset="0.768994" stop-color="#3366CC"/>
<stop offset="1" stop-color="#2AFFDE"/>
</linearGradient>
<linearGradient id="paint4_linear_43_263" x1="941.334" y1="-14.0843" x2="40.1527" y2="1011.01" gradientUnits="userSpaceOnUse">
<stop stop-color="#A30D51"/>
<stop offset="0.304416" stop-color="#DD1064"/>
<stop offset="0.768994" stop-color="#3366CC"/>
<stop offset="1" stop-color="#2AFFDE"/>
</linearGradient>
<linearGradient id="paint5_linear_43_263" x1="715.24" y1="-214.768" x2="-185.941" y2="810.325" gradientUnits="userSpaceOnUse">
<stop stop-color="#A30D51"/>
<stop offset="0.304416" stop-color="#DD1064"/>
<stop offset="0.768994" stop-color="#3366CC"/>
<stop offset="1" stop-color="#2AFFDE"/>
</linearGradient>
<linearGradient id="paint6_linear_43_263" x1="1351.05" y1="344.192" x2="449.874" y2="1369.29" gradientUnits="userSpaceOnUse">
<stop stop-color="#A30D51"/>
<stop offset="0.304416" stop-color="#DD1064"/>
<stop offset="0.768994" stop-color="#3366CC"/>
<stop offset="1" stop-color="#2AFFDE"/>
</linearGradient>
<linearGradient id="paint7_linear_43_263" x1="1324.66" y1="320.986" x2="423.483" y2="1346.08" gradientUnits="userSpaceOnUse">
<stop stop-color="#A30D51"/>
<stop offset="0.304416" stop-color="#DD1064"/>
<stop offset="0.768994" stop-color="#3366CC"/>
<stop offset="1" stop-color="#2AFFDE"/>
</linearGradient>
<linearGradient id="paint8_linear_43_263" x1="657.318" y1="-263.778" x2="-243.863" y2="761.315" gradientUnits="userSpaceOnUse">
<stop stop-color="#A30D51"/>
<stop offset="0.304416" stop-color="#DD1064"/>
<stop offset="0.768994" stop-color="#3366CC"/>
<stop offset="1" stop-color="#2AFFDE"/>
</linearGradient>
<linearGradient id="paint9_linear_43_263" x1="657.318" y1="-263.778" x2="-243.863" y2="761.315" gradientUnits="userSpaceOnUse">
<stop stop-color="#A30D51"/>
<stop offset="0.304416" stop-color="#DD1064"/>
<stop offset="0.768994" stop-color="#3366CC"/>
<stop offset="1" stop-color="#2AFFDE"/>
</linearGradient>
</defs>
</svg>
